<svg width="200" height="200" viewBox="0 0 200 200" fill="none" xmlns="http://www.w3.org/2000/svg">
<rect width="200" height="200" rx="5" fill="url(#paint0_linear_577_458)"/>
<path d="M33.952 107L28.832 98.104H26.048V107H22.4V84.76H30.08C31.7867 84.76 33.2267 85.0587 34.4 85.656C35.5947 86.2533 36.48 87.0533 37.056 88.056C37.6533 89.0587 37.952 90.1787 37.952 91.416C37.952 92.8667 37.5253 94.1893 36.672 95.384C35.84 96.5573 34.5493 97.3573 32.8 97.784L38.304 107H33.952ZM26.048 95.192H30.08C31.4453 95.192 32.4693 94.8507 33.152 94.168C33.856 93.4853 34.208 92.568 34.208 91.416C34.208 90.264 33.8667 89.368 33.184 88.728C32.5013 88.0667 31.4667 87.736 30.08 87.736H26.048V95.192ZM58.7788 97.752C58.7788 98.4133 58.7361 99.0107 58.6508 99.544H45.1788C45.2854 100.952 45.8081 102.083 46.7468 102.936C47.6854 103.789 48.8374 104.216 50.2028 104.216C52.1654 104.216 53.5521 103.395 54.3628 101.752H58.2987C57.7654 103.373 56.7948 104.707 55.3868 105.752C54.0001 106.776 52.2721 107.288 50.2028 107.288C48.5174 107.288 47.0028 106.915 45.6588 106.168C44.3361 105.4 43.2908 104.333 42.5228 102.968C41.7761 101.581 41.4028 99.9813 41.4028 98.168C41.4028 96.3547 41.7654 94.7653 42.4908 93.4C43.2374 92.0133 44.2721 90.9467 45.5948 90.2C46.9388 89.4533 48.4748 89.08 50.2028 89.08C51.8668 89.08 53.3494 89.4427 54.6508 90.168C55.9521 90.8933 56.9654 91.9173 57.6908 93.24C58.4161 94.5413 58.7788 96.0453 58.7788 97.752ZM54.9708 96.6C54.9494 95.256 54.4694 94.1787 53.5308 93.368C52.5921 92.5573 51.4294 92.152 50.0428 92.152C48.7841 92.152 47.7068 92.5573 46.8108 93.368C45.9148 94.1573 45.3814 95.2347 45.2108 96.6H54.9708ZM71.2648 89.08C72.6514 89.08 73.8888 89.368 74.9768 89.944C76.0861 90.52 76.9501 91.3733 77.5688 92.504C78.1874 93.6347 78.4968 95 78.4968 96.6V107H74.8808V97.144C74.8808 95.5653 74.4861 94.36 73.6968 93.528C72.9074 92.6747 71.8301 92.248 70.4648 92.248C69.0994 92.248 68.0114 92.6747 67.2008 93.528C66.4114 94.36 66.0168 95.5653 66.0168 97.144V107H62.3688V89.368H66.0168V91.384C66.6141 90.6587 67.3714 90.0933 68.2888 89.688C69.2274 89.2827 70.2194 89.08 71.2648 89.08ZM90.798 107.288C89.134 107.288 87.63 106.915 86.286 106.168C84.942 105.4 83.886 104.333 83.118 102.968C82.35 101.581 81.966 99.9813 81.966 98.168C81.966 96.376 82.3607 94.7867 83.15 93.4C83.9393 92.0133 85.0167 90.9467 86.382 90.2C87.7473 89.4533 89.2727 89.08 90.958 89.08C92.6433 89.08 94.1687 89.4533 95.534 90.2C96.8993 90.9467 97.9767 92.0133 98.766 93.4C99.5553 94.7867 99.95 96.376 99.95 98.168C99.95 99.96 99.5447 101.549 98.734 102.936C97.9233 104.323 96.814 105.4 95.406 106.168C94.0193 106.915 92.4833 107.288 90.798 107.288ZM90.798 104.12C91.7367 104.12 92.6113 103.896 93.422 103.448C94.254 103 94.926 102.328 95.438 101.432C95.95 100.536 96.206 99.448 96.206 98.168C96.206 96.888 95.9607 95.8107 95.47 94.936C94.9793 94.04 94.3287 93.368 93.518 92.92C92.7073 92.472 91.8327 92.248 90.894 92.248C89.9553 92.248 89.0807 92.472 88.27 92.92C87.4807 93.368 86.8513 94.04 86.382 94.936C85.9127 95.8107 85.678 96.888 85.678 98.168C85.678 100.067 86.158 101.539 87.118 102.584C88.0993 103.608 89.326 104.12 90.798 104.12ZM127.236 89.368L121.764 107H117.924L114.372 93.976L110.82 107H106.98L101.476 89.368H105.188L108.868 103.544L112.612 89.368H116.42L120.004 103.48L123.652 89.368H127.236ZM138.859 89.08C140.245 89.08 141.483 89.368 142.571 89.944C143.68 90.52 144.544 91.3733 145.163 92.504C145.781 93.6347 146.091 95 146.091 96.6V107H142.475V97.144C142.475 95.5653 142.08 94.36 141.291 93.528C140.501 92.6747 139.424 92.248 138.059 92.248C136.693 92.248 135.605 92.6747 134.795 93.528C134.005 94.36 133.611 95.5653 133.611 97.144V107H129.963V89.368H133.611V91.384C134.208 90.6587 134.965 90.0933 135.883 89.688C136.821 89.2827 137.813 89.08 138.859 89.08ZM166.904 97.752C166.904 98.4133 166.861 99.0107 166.776 99.544H153.304C153.41 100.952 153.933 102.083 154.872 102.936C155.81 103.789 156.962 104.216 158.328 104.216C160.29 104.216 161.677 103.395 162.488 101.752H166.424C165.89 103.373 164.92 104.707 163.512 105.752C162.125 106.776 160.397 107.288 158.328 107.288C156.642 107.288 155.128 106.915 153.784 106.168C152.461 105.4 151.416 104.333 150.648 102.968C149.901 101.581 149.528 99.9813 149.528 98.168C149.528 96.3547 149.89 94.7653 150.616 93.4C151.362 92.0133 152.397 90.9467 153.72 90.2C155.064 89.4533 156.6 89.08 158.328 89.08C159.992 89.08 161.474 89.4427 162.776 90.168C164.077 90.8933 165.09 91.9173 165.816 93.24C166.541 94.5413 166.904 96.0453 166.904 97.752ZM163.096 96.6C163.074 95.256 162.594 94.1787 161.656 93.368C160.717 92.5573 159.554 92.152 158.168 92.152C156.909 92.152 155.832 92.5573 154.936 93.368C154.04 94.1573 153.506 95.2347 153.336 96.6H163.096ZM169.278 98.104C169.278 96.3333 169.64 94.7653 170.366 93.4C171.112 92.0347 172.115 90.9787 173.374 90.232C174.654 89.464 176.072 89.08 177.63 89.08C178.782 89.08 179.912 89.336 181.022 89.848C182.152 90.3387 183.048 91 183.71 91.832V83.32H187.39V107H183.71V104.344C183.112 105.197 182.28 105.901 181.214 106.456C180.168 107.011 178.963 107.288 177.598 107.288C176.062 107.288 174.654 106.904 173.374 106.136C172.115 105.347 171.112 104.259 170.366 102.872C169.64 101.464 169.278 99.8747 169.278 98.104ZM183.71 98.168C183.71 96.952 183.454 95.896 182.942 95C182.451 94.104 181.8 93.4213 180.99 92.952C180.179 92.4827 179.304 92.248 178.366 92.248C177.427 92.248 176.552 92.4827 175.742 92.952C174.931 93.4 174.27 94.072 173.758 94.968C173.267 95.8427 173.022 96.888 173.022 98.104C173.022 99.32 173.267 100.387 173.758 101.304C174.27 102.221 174.931 102.925 175.742 103.416C176.574 103.885 177.448 104.12 178.366 104.12C179.304 104.12 180.179 103.885 180.99 103.416C181.8 102.947 182.451 102.264 182.942 101.368C183.454 100.451 183.71 99.384 183.71 98.168Z" fill="black"/>
<path d="M23.7 114.418V127H22.44V114.418H23.7ZM31.1613 116.992C32.3373 116.992 33.2973 117.358 34.0413 118.09C34.7853 118.81 35.1573 119.86 35.1573 121.24V127H33.9153V121.384C33.9153 120.316 33.6453 119.5 33.1053 118.936C32.5773 118.372 31.8513 118.09 30.9273 118.09C29.9793 118.09 29.2233 118.39 28.6593 118.99C28.0953 119.59 27.8133 120.472 27.8133 121.636V127H26.5533V117.172H27.8133V118.846C28.1253 118.246 28.5753 117.79 29.1633 117.478C29.7513 117.154 30.4173 116.992 31.1613 116.992ZM37.3679 122.068C37.3679 121.06 37.5719 120.178 37.9799 119.422C38.3879 118.654 38.9459 118.066 39.6539 117.658C40.3739 117.238 41.1839 117.028 42.0839 117.028C42.9479 117.028 43.7279 117.238 44.4239 117.658C45.1199 118.078 45.6299 118.624 45.9539 119.296V113.68H47.2139V127H45.9539V124.804C45.6539 125.488 45.1619 126.052 44.4779 126.496C43.7939 126.928 42.9899 127.144 42.0659 127.144C41.1659 127.144 40.3559 126.934 39.6359 126.514C38.9279 126.094 38.3699 125.5 37.9619 124.732C37.5659 123.964 37.3679 123.076 37.3679 122.068ZM45.9539 122.086C45.9539 121.294 45.7919 120.598 45.4679 119.998C45.1439 119.398 44.6999 118.936 44.1359 118.612C43.5839 118.288 42.9719 118.126 42.2999 118.126C41.6039 118.126 40.9799 118.282 40.4279 118.594C39.8759 118.906 39.4379 119.362 39.1139 119.962C38.8019 120.55 38.6459 121.252 38.6459 122.068C38.6459 122.872 38.8019 123.58 39.1139 124.192C39.4379 124.792 39.8759 125.254 40.4279 125.578C40.9799 125.89 41.6039 126.046 42.2999 126.046C42.9719 126.046 43.5839 125.884 44.1359 125.56C44.6999 125.236 45.1439 124.774 45.4679 124.174C45.7919 123.574 45.9539 122.878 45.9539 122.086ZM58.6044 117.172V127H57.3444V125.272C57.0564 125.884 56.6124 126.352 56.0124 126.676C55.4124 127 54.7404 127.162 53.9964 127.162C52.8204 127.162 51.8604 126.802 51.1164 126.082C50.3724 125.35 50.0004 124.294 50.0004 122.914V117.172H51.2424V122.77C51.2424 123.838 51.5064 124.654 52.0344 125.218C52.5744 125.782 53.3064 126.064 54.2304 126.064C55.1784 126.064 55.9344 125.764 56.4984 125.164C57.0624 124.564 57.3444 123.682 57.3444 122.518V117.172H58.6044ZM64.865 127.144C63.737 127.144 62.813 126.886 62.093 126.37C61.385 125.842 60.989 125.128 60.905 124.228H62.201C62.261 124.78 62.519 125.23 62.975 125.578C63.443 125.914 64.067 126.082 64.847 126.082C65.531 126.082 66.065 125.92 66.449 125.596C66.845 125.272 67.043 124.87 67.043 124.39C67.043 124.054 66.935 123.778 66.719 123.562C66.503 123.346 66.227 123.178 65.891 123.058C65.567 122.926 65.123 122.788 64.559 122.644C63.827 122.452 63.233 122.26 62.777 122.068C62.321 121.876 61.931 121.594 61.607 121.222C61.295 120.838 61.139 120.328 61.139 119.692C61.139 119.212 61.283 118.768 61.571 118.36C61.859 117.952 62.267 117.628 62.795 117.388C63.323 117.148 63.923 117.028 64.595 117.028C65.651 117.028 66.503 117.298 67.151 117.838C67.799 118.366 68.147 119.098 68.195 120.034H66.935C66.899 119.458 66.671 118.996 66.251 118.648C65.843 118.288 65.279 118.108 64.559 118.108C63.923 118.108 63.407 118.258 63.011 118.558C62.615 118.858 62.417 119.23 62.417 119.674C62.417 120.058 62.531 120.376 62.759 120.628C62.999 120.868 63.293 121.06 63.641 121.204C63.989 121.336 64.457 121.486 65.045 121.654C65.753 121.846 66.317 122.032 66.737 122.212C67.157 122.392 67.517 122.656 67.817 123.004C68.117 123.352 68.273 123.814 68.285 124.39C68.285 124.918 68.141 125.392 67.853 125.812C67.565 126.22 67.163 126.544 66.647 126.784C66.131 127.024 65.537 127.144 64.865 127.144ZM72.2948 118.234V124.336C72.2948 124.936 72.4088 125.35 72.6368 125.578C72.8648 125.806 73.2668 125.92 73.8428 125.92H74.9948V127H73.6448C72.7568 127 72.0968 126.796 71.6648 126.388C71.2328 125.968 71.0168 125.284 71.0168 124.336V118.234H69.6488V117.172H71.0168V114.706H72.2948V117.172H74.9948V118.234H72.2948ZM78.3328 118.918C78.6088 118.306 79.0288 117.832 79.5928 117.496C80.1688 117.16 80.8708 116.992 81.6988 116.992V118.306H81.3568C80.4448 118.306 79.7128 118.552 79.1608 119.044C78.6088 119.536 78.3328 120.358 78.3328 121.51V127H77.0728V117.172H78.3328V118.918ZM91.6943 117.172L85.8623 131.626H84.5483L86.4563 126.946L82.4243 117.172H83.8103L87.1583 125.56L90.3983 117.172H91.6943ZM99.6023 115.444V120.142H104.372V121.186H99.6023V125.956H104.912V127H98.3423V114.4H104.912V115.444H99.6023ZM112.543 127L110.005 123.04L107.557 127H106.225L109.393 122.086L106.261 117.172H107.683L110.185 121.078L112.615 117.172H113.929L110.797 122.032L113.965 127H112.543ZM116.916 119.332C117.228 118.672 117.72 118.126 118.392 117.694C119.076 117.25 119.886 117.028 120.822 117.028C121.71 117.028 122.508 117.238 123.216 117.658C123.936 118.066 124.494 118.654 124.89 119.422C125.298 120.178 125.502 121.06 125.502 122.068C125.502 123.076 125.298 123.964 124.89 124.732C124.494 125.5 123.936 126.094 123.216 126.514C122.508 126.934 121.71 127.144 120.822 127.144C119.898 127.144 119.094 126.928 118.41 126.496C117.726 126.052 117.228 125.5 116.916 124.84V131.644H115.674V117.172H116.916V119.332ZM124.224 122.068C124.224 121.252 124.062 120.55 123.738 119.962C123.426 119.362 122.994 118.906 122.442 118.594C121.89 118.282 121.266 118.126 120.57 118.126C119.898 118.126 119.28 118.288 118.716 118.612C118.164 118.936 117.726 119.398 117.402 119.998C117.078 120.598 116.916 121.294 116.916 122.086C116.916 122.878 117.078 123.574 117.402 124.174C117.726 124.774 118.164 125.236 118.716 125.56C119.28 125.884 119.898 126.046 120.57 126.046C121.266 126.046 121.89 125.89 122.442 125.578C122.994 125.254 123.426 124.792 123.738 124.192C124.062 123.58 124.224 122.872 124.224 122.068ZM136.713 121.582C136.713 122.014 136.701 122.344 136.677 122.572H128.523C128.559 123.316 128.739 123.952 129.063 124.48C129.387 125.008 129.813 125.41 130.341 125.686C130.869 125.95 131.445 126.082 132.069 126.082C132.885 126.082 133.569 125.884 134.121 125.488C134.685 125.092 135.057 124.558 135.237 123.886H136.569C136.329 124.846 135.813 125.632 135.021 126.244C134.241 126.844 133.257 127.144 132.069 127.144C131.145 127.144 130.317 126.94 129.585 126.532C128.853 126.112 128.277 125.524 127.857 124.768C127.449 124 127.245 123.106 127.245 122.086C127.245 121.066 127.449 120.172 127.857 119.404C128.265 118.636 128.835 118.048 129.567 117.64C130.299 117.232 131.133 117.028 132.069 117.028C133.005 117.028 133.821 117.232 134.517 117.64C135.225 118.048 135.765 118.6 136.137 119.296C136.521 119.98 136.713 120.742 136.713 121.582ZM135.435 121.546C135.447 120.814 135.297 120.19 134.985 119.674C134.685 119.158 134.271 118.768 133.743 118.504C133.215 118.24 132.639 118.108 132.015 118.108C131.079 118.108 130.281 118.408 129.621 119.008C128.961 119.608 128.595 120.454 128.523 121.546H135.435ZM140.278 118.918C140.554 118.306 140.974 117.832 141.538 117.496C142.114 117.16 142.816 116.992 143.644 116.992V118.306H143.302C142.39 118.306 141.658 118.552 141.106 119.044C140.554 119.536 140.278 120.358 140.278 121.51V127H139.018V117.172H140.278V118.918ZM147.178 118.234V124.336C147.178 124.936 147.292 125.35 147.52 125.578C147.748 125.806 148.15 125.92 148.726 125.92H149.878V127H148.528C147.64 127 146.98 126.796 146.548 126.388C146.116 125.968 145.9 125.284 145.9 124.336V118.234H144.532V117.172H145.9V114.706H147.178V117.172H149.878V118.234H147.178ZM155.34 127.144C154.212 127.144 153.288 126.886 152.568 126.37C151.86 125.842 151.464 125.128 151.38 124.228H152.676C152.736 124.78 152.994 125.23 153.45 125.578C153.918 125.914 154.542 126.082 155.322 126.082C156.006 126.082 156.54 125.92 156.924 125.596C157.32 125.272 157.518 124.87 157.518 124.39C157.518 124.054 157.41 123.778 157.194 123.562C156.978 123.346 156.702 123.178 156.366 123.058C156.042 122.926 155.598 122.788 155.034 122.644C154.302 122.452 153.708 122.26 153.252 122.068C152.796 121.876 152.406 121.594 152.082 121.222C151.77 120.838 151.614 120.328 151.614 119.692C151.614 119.212 151.758 118.768 152.046 118.36C152.334 117.952 152.742 117.628 153.27 117.388C153.798 117.148 154.398 117.028 155.07 117.028C156.126 117.028 156.978 117.298 157.626 117.838C158.274 118.366 158.622 119.098 158.67 120.034H157.41C157.374 119.458 157.146 118.996 156.726 118.648C156.318 118.288 155.754 118.108 155.034 118.108C154.398 118.108 153.882 118.258 153.486 118.558C153.09 118.858 152.892 119.23 152.892 119.674C152.892 120.058 153.006 120.376 153.234 120.628C153.474 120.868 153.768 121.06 154.116 121.204C154.464 121.336 154.932 121.486 155.52 121.654C156.228 121.846 156.792 122.032 157.212 122.212C157.632 122.392 157.992 122.656 158.292 123.004C158.592 123.352 158.748 123.814 158.76 124.39C158.76 124.918 158.616 125.392 158.328 125.812C158.04 126.22 157.638 126.544 157.122 126.784C156.606 127.024 156.012 127.144 155.34 127.144Z" fill="black"/>
<defs>
<linearGradient id="paint0_linear_577_458" x1="100" y1="0" x2="100" y2="200" gradientUnits="userSpaceOnUse">
<stop stop-color="#DFAB2F"/>
<stop offset="1" stop-color="#F9CF6B"/>
</linearGradient>
</defs>
</svg>
