<svg width="200" height="200" viewBox="0 0 200 200" fill="none" xmlns="http://www.w3.org/2000/svg">
<rect width="200" height="200" rx="5" fill="url(#paint0_linear_577_470)"/>
<path d="M36.168 89.784V90.232H39.88V92.856H35.976C35.7413 94.2853 35.2933 95.4267 34.632 96.28C33.992 97.112 33.0747 97.72 31.88 98.104C30.6853 98.4667 29.1387 98.648 27.24 98.648V100.664C27.24 101.837 27.4853 102.765 27.976 103.448C28.488 104.131 29.3413 104.472 30.536 104.472C32.712 104.472 33.8 103.245 33.8 100.792H37.16C37.1387 102.947 36.552 104.579 35.4 105.688C34.2693 106.776 32.6267 107.32 30.472 107.32C28.3173 107.32 26.664 106.723 25.512 105.528C24.3813 104.333 23.816 102.659 23.816 100.504V96.12C26.184 96.12 27.9227 96.056 29.032 95.928C30.1413 95.7787 30.9627 95.48 31.496 95.032C32.0507 94.584 32.4133 93.8587 32.584 92.856H22.472V90.232H32.744V89.784V87.384H22.472V84.728H39.88V87.384H36.168V89.784ZM42.3463 87V83.672H49.0023V107H45.3223V87H42.3463ZM58.4938 102.616L54.6218 111.448H52.2538L54.5258 102.616H58.4938ZM61.2013 95.032C61.2013 91.3413 61.8199 88.4613 63.0573 86.392C64.3159 84.3013 66.4706 83.256 69.5213 83.256C72.5719 83.256 74.7159 84.3013 75.9533 86.392C77.2119 88.4613 77.8413 91.3413 77.8413 95.032C77.8413 98.7653 77.2119 101.688 75.9533 103.8C74.7159 105.891 72.5719 106.936 69.5213 106.936C66.4706 106.936 64.3159 105.891 63.0573 103.8C61.8199 101.688 61.2013 98.7653 61.2013 95.032ZM74.2573 95.032C74.2573 93.304 74.1399 91.8427 73.9053 90.648C73.6919 89.4533 73.2439 88.4827 72.5613 87.736C71.8786 86.968 70.8653 86.584 69.5213 86.584C68.1773 86.584 67.1639 86.968 66.4813 87.736C65.7986 88.4827 65.3399 89.4533 65.1053 90.648C64.8919 91.8427 64.7853 93.304 64.7853 95.032C64.7853 96.824 64.8919 98.328 65.1053 99.544C65.3186 100.76 65.7666 101.741 66.4493 102.488C67.1533 103.235 68.1773 103.608 69.5213 103.608C70.8653 103.608 71.8786 103.235 72.5613 102.488C73.2653 101.741 73.7239 100.76 73.9373 99.544C74.1506 98.328 74.2573 96.824 74.2573 95.032ZM81.7013 95.032C81.7013 91.3413 82.3199 88.4613 83.5573 86.392C84.8159 84.3013 86.9706 83.256 90.0213 83.256C93.0719 83.256 95.2159 84.3013 96.4533 86.392C97.7119 88.4613 98.3413 91.3413 98.3413 95.032C98.3413 98.7653 97.7119 101.688 96.4533 103.8C95.2159 105.891 93.0719 106.936 90.0213 106.936C86.9706 106.936 84.8159 105.891 83.5573 103.8C82.3199 101.688 81.7013 98.7653 81.7013 95.032ZM94.7573 95.032C94.7573 93.304 94.6399 91.8427 94.4053 90.648C94.1919 89.4533 93.7439 88.4827 93.0613 87.736C92.3786 86.968 91.3653 86.584 90.0213 86.584C88.6773 86.584 87.6639 86.968 86.9813 87.736C86.2986 88.4827 85.8399 89.4533 85.6053 90.648C85.3919 91.8427 85.2853 93.304 85.2853 95.032C85.2853 96.824 85.3919 98.328 85.6053 99.544C85.8186 100.76 86.2666 101.741 86.9493 102.488C87.6533 103.235 88.6773 103.608 90.0213 103.608C91.3653 103.608 92.3786 103.235 93.0613 102.488C93.7653 101.741 94.2239 100.76 94.4373 99.544C94.6506 98.328 94.7573 96.824 94.7573 95.032ZM106.681 102.616L102.809 111.448H100.441L102.713 102.616H106.681ZM109.389 95.032C109.389 91.3413 110.007 88.4613 111.245 86.392C112.503 84.3013 114.658 83.256 117.709 83.256C120.759 83.256 122.903 84.3013 124.141 86.392C125.399 88.4613 126.029 91.3413 126.029 95.032C126.029 98.7653 125.399 101.688 124.141 103.8C122.903 105.891 120.759 106.936 117.709 106.936C114.658 106.936 112.503 105.891 111.245 103.8C110.007 101.688 109.389 98.7653 109.389 95.032ZM122.445 95.032C122.445 93.304 122.327 91.8427 122.093 90.648C121.879 89.4533 121.431 88.4827 120.749 87.736C120.066 86.968 119.053 86.584 117.709 86.584C116.365 86.584 115.351 86.968 114.669 87.736C113.986 88.4827 113.527 89.4533 113.293 90.648C113.079 91.8427 112.973 93.304 112.973 95.032C112.973 96.824 113.079 98.328 113.293 99.544C113.506 100.76 113.954 101.741 114.637 102.488C115.341 103.235 116.365 103.608 117.709 103.608C119.053 103.608 120.066 103.235 120.749 102.488C121.453 101.741 121.911 100.76 122.125 99.544C122.338 98.328 122.445 96.824 122.445 95.032ZM129.889 95.032C129.889 91.3413 130.507 88.4613 131.745 86.392C133.003 84.3013 135.158 83.256 138.209 83.256C141.259 83.256 143.403 84.3013 144.641 86.392C145.899 88.4613 146.529 91.3413 146.529 95.032C146.529 98.7653 145.899 101.688 144.641 103.8C143.403 105.891 141.259 106.936 138.209 106.936C135.158 106.936 133.003 105.891 131.745 103.8C130.507 101.688 129.889 98.7653 129.889 95.032ZM142.945 95.032C142.945 93.304 142.827 91.8427 142.593 90.648C142.379 89.4533 141.931 88.4827 141.249 87.736C140.566 86.968 139.553 86.584 138.209 86.584C136.865 86.584 135.851 86.968 135.169 87.736C134.486 88.4827 134.027 89.4533 133.793 90.648C133.579 91.8427 133.473 93.304 133.473 95.032C133.473 96.824 133.579 98.328 133.793 99.544C134.006 100.76 134.454 101.741 135.137 102.488C135.841 103.235 136.865 103.608 138.209 103.608C139.553 103.608 140.566 103.235 141.249 102.488C141.953 101.741 142.411 100.76 142.625 99.544C142.838 98.328 142.945 96.824 142.945 95.032ZM150.389 95.032C150.389 91.3413 151.007 88.4613 152.245 86.392C153.503 84.3013 155.658 83.256 158.709 83.256C161.759 83.256 163.903 84.3013 165.141 86.392C166.399 88.4613 167.029 91.3413 167.029 95.032C167.029 98.7653 166.399 101.688 165.141 103.8C163.903 105.891 161.759 106.936 158.709 106.936C155.658 106.936 153.503 105.891 152.245 103.8C151.007 101.688 150.389 98.7653 150.389 95.032ZM163.445 95.032C163.445 93.304 163.327 91.8427 163.093 90.648C162.879 89.4533 162.431 88.4827 161.749 87.736C161.066 86.968 160.053 86.584 158.709 86.584C157.365 86.584 156.351 86.968 155.669 87.736C154.986 88.4827 154.527 89.4533 154.293 90.648C154.079 91.8427 153.973 93.304 153.973 95.032C153.973 96.824 154.079 98.328 154.293 99.544C154.506 100.76 154.954 101.741 155.637 102.488C156.341 103.235 157.365 103.608 158.709 103.608C160.053 103.608 161.066 103.235 161.749 102.488C162.453 101.741 162.911 100.76 163.125 99.544C163.338 98.328 163.445 96.824 163.445 95.032ZM188.553 96.984H182.089V103.608H178.697V96.984H172.233V93.912H178.697V87.288H182.089V93.912H188.553V96.984Z" fill="black"/>
<path d="M30.486 122.036C30.486 123.116 30.132 123.986 29.424 124.646C28.716 125.306 27.654 125.636 26.238 125.636H23.7V131H22.44V118.418H26.238C27.642 118.418 28.698 118.748 29.406 119.408C30.126 120.068 30.486 120.944 30.486 122.036ZM26.238 124.556C28.206 124.556 29.19 123.716 29.19 122.036C29.19 121.196 28.956 120.56 28.488 120.128C28.02 119.696 27.27 119.48 26.238 119.48H23.7V124.556H26.238ZM33.8602 122.918C34.1362 122.306 34.5562 121.832 35.1202 121.496C35.6962 121.16 36.3982 120.992 37.2262 120.992V122.306H36.8842C35.9722 122.306 35.2402 122.552 34.6882 123.044C34.1362 123.536 33.8602 124.358 33.8602 125.51V131H32.6002V121.172H33.8602V122.918ZM39.7516 119.318C39.4996 119.318 39.2836 119.228 39.1036 119.048C38.9236 118.868 38.8336 118.646 38.8336 118.382C38.8336 118.118 38.9236 117.902 39.1036 117.734C39.2836 117.554 39.4996 117.464 39.7516 117.464C40.0036 117.464 40.2196 117.554 40.3996 117.734C40.5796 117.902 40.6696 118.118 40.6696 118.382C40.6696 118.646 40.5796 118.868 40.3996 119.048C40.2196 119.228 40.0036 119.318 39.7516 119.318ZM40.3816 121.172V131H39.1216V121.172H40.3816ZM43.9009 129.956H49.0489V131H42.4609V129.956L47.5189 122.216H42.5509V121.172H48.9589V122.216L43.9009 129.956ZM60.0722 125.582C60.0722 126.014 60.0602 126.344 60.0362 126.572H51.8822C51.9182 127.316 52.0982 127.952 52.4222 128.48C52.7462 129.008 53.1722 129.41 53.7002 129.686C54.2282 129.95 54.8042 130.082 55.4282 130.082C56.2442 130.082 56.9282 129.884 57.4802 129.488C58.0442 129.092 58.4162 128.558 58.5962 127.886H59.9282C59.6882 128.846 59.1722 129.632 58.3802 130.244C57.6002 130.844 56.6162 131.144 55.4282 131.144C54.5042 131.144 53.6762 130.94 52.9442 130.532C52.2122 130.112 51.6362 129.524 51.2162 128.768C50.8082 128 50.6042 127.106 50.6042 126.086C50.6042 125.066 50.8082 124.172 51.2162 123.404C51.6242 122.636 52.1942 122.048 52.9262 121.64C53.6582 121.232 54.4922 121.028 55.4282 121.028C56.3642 121.028 57.1802 121.232 57.8762 121.64C58.5842 122.048 59.1242 122.6 59.4962 123.296C59.8802 123.98 60.0722 124.742 60.0722 125.582ZM58.7942 125.546C58.8062 124.814 58.6562 124.19 58.3442 123.674C58.0442 123.158 57.6302 122.768 57.1022 122.504C56.5742 122.24 55.9982 122.108 55.3742 122.108C54.4382 122.108 53.6402 122.408 52.9802 123.008C52.3202 123.608 51.9542 124.454 51.8822 125.546H58.7942ZM75.363 122.036C75.363 123.116 75.009 123.986 74.301 124.646C73.593 125.306 72.531 125.636 71.115 125.636H68.577V131H67.317V118.418H71.115C72.519 118.418 73.575 118.748 74.283 119.408C75.003 120.068 75.363 120.944 75.363 122.036ZM71.115 124.556C73.083 124.556 74.067 123.716 74.067 122.036C74.067 121.196 73.833 120.56 73.365 120.128C72.897 119.696 72.147 119.48 71.115 119.48H68.577V124.556H71.115ZM81.7791 131.144C80.8551 131.144 80.0211 130.94 79.2771 130.532C78.5451 130.112 77.9631 129.524 77.5311 128.768C77.1111 128 76.9011 127.106 76.9011 126.086C76.9011 125.066 77.1171 124.178 77.5491 123.422C77.9811 122.654 78.5691 122.066 79.3131 121.658C80.0571 121.238 80.8911 121.028 81.8151 121.028C82.7391 121.028 83.5731 121.238 84.3171 121.658C85.0731 122.066 85.6611 122.654 86.0811 123.422C86.5131 124.178 86.7291 125.066 86.7291 126.086C86.7291 127.094 86.5131 127.982 86.0811 128.75C85.6491 129.518 85.0551 130.112 84.2991 130.532C83.5431 130.94 82.7031 131.144 81.7791 131.144ZM81.7791 130.046C82.4271 130.046 83.0271 129.902 83.5791 129.614C84.1311 129.314 84.5751 128.87 84.9111 128.282C85.2591 127.682 85.4331 126.95 85.4331 126.086C85.4331 125.222 85.2651 124.496 84.9291 123.908C84.5931 123.308 84.1491 122.864 83.5971 122.576C83.0451 122.276 82.4451 122.126 81.7971 122.126C81.1491 122.126 80.5491 122.276 79.9971 122.576C79.4451 122.864 79.0011 123.308 78.6651 123.908C78.3411 124.496 78.1791 125.222 78.1791 126.086C78.1791 126.95 78.3411 127.682 78.6651 128.282C79.0011 128.87 79.4391 129.314 79.9791 129.614C80.5311 129.902 81.1311 130.046 81.7791 130.046ZM93.3279 131.144C92.4039 131.144 91.5699 130.94 90.8259 130.532C90.0939 130.112 89.5119 129.524 89.0799 128.768C88.6599 128 88.4499 127.106 88.4499 126.086C88.4499 125.066 88.6659 124.178 89.0979 123.422C89.5299 122.654 90.1179 122.066 90.8619 121.658C91.6059 121.238 92.4399 121.028 93.3639 121.028C94.2879 121.028 95.1219 121.238 95.8659 121.658C96.6219 122.066 97.2099 122.654 97.6299 123.422C98.0619 124.178 98.2779 125.066 98.2779 126.086C98.2779 127.094 98.0619 127.982 97.6299 128.75C97.1979 129.518 96.6039 130.112 95.8479 130.532C95.0919 130.94 94.2519 131.144 93.3279 131.144ZM93.3279 130.046C93.9759 130.046 94.5759 129.902 95.1279 129.614C95.6799 129.314 96.1239 128.87 96.4599 128.282C96.8079 127.682 96.9819 126.95 96.9819 126.086C96.9819 125.222 96.8139 124.496 96.4779 123.908C96.1419 123.308 95.6979 122.864 95.1459 122.576C94.5939 122.276 93.9939 122.126 93.3459 122.126C92.6979 122.126 92.0979 122.276 91.5459 122.576C90.9939 122.864 90.5499 123.308 90.2139 123.908C89.8899 124.496 89.7279 125.222 89.7279 126.086C89.7279 126.95 89.8899 127.682 90.2139 128.282C90.5499 128.87 90.9879 129.314 91.5279 129.614C92.0799 129.902 92.6799 130.046 93.3279 130.046ZM101.835 117.68V131H100.575V117.68H101.835Z" fill="black"/>
<defs>
<linearGradient id="paint0_linear_577_470" x1="100" y1="0" x2="100" y2="200" gradientUnits="userSpaceOnUse">
<stop stop-color="#DFAB2F"/>
<stop offset="1" stop-color="#F9CF6B"/>
</linearGradient>
</defs>
</svg>
