<svg width="89" height="104" viewBox="0 0 89 104" fill="none" xmlns="http://www.w3.org/2000/svg">
<path d="M0 32.3646C0 29.6441 1.38249 27.1101 3.67003 25.6377L39.2658 2.72546C41.8536 1.05974 45.1675 1.02616 47.7886 2.63911L85.1928 25.6571C87.5588 27.1131 89 29.6923 89 32.4704V75.6278C89 78.6203 87.3299 81.3626 84.6711 82.7358L47.2551 102.061C44.9056 103.274 42.1082 103.248 39.7815 101.991L4.19755 82.7676C1.61165 81.3707 0 78.6682 0 75.7291V32.3646Z" fill="url(#paint0_linear_155_169)"/>
<path d="M44.5 35.4375C41.1254 35.4375 37.8265 36.4382 35.0206 38.313C32.2147 40.1879 30.0277 42.8527 28.7363 45.9705C27.4449 49.0882 27.107 52.5189 27.7654 55.8287C28.4237 59.1385 30.0488 62.1788 32.435 64.565C34.8212 66.9512 37.8615 68.5763 41.1713 69.2346C44.4811 69.893 47.9118 69.5551 51.0295 68.2637C54.1473 66.9723 56.8121 64.7853 58.687 61.9794C60.5618 59.1735 61.5625 55.8746 61.5625 52.5C61.5625 47.9747 59.7649 43.6348 56.565 40.435C53.3652 37.2352 49.0253 35.4375 44.5 35.4375V35.4375ZM42.0625 59.3138L35.9688 53.22L37.9073 51.2812L42.0625 55.4362L51.0934 46.4062L53.0382 48.3391L42.0625 59.3138Z" fill="white"/>
<defs>
<linearGradient id="paint0_linear_155_169" x1="44.5" y1="0" x2="44.5" y2="104" gradientUnits="userSpaceOnUse">
<stop stop-color="#60EB5D"/>
<stop offset="1" stop-color="#54C51F"/>
</linearGradient>
</defs>
</svg>
