<svg width="387" height="128" viewBox="0 0 387 128" fill="none" xmlns="http://www.w3.org/2000/svg">
<path d="M34.708 122V112.2H38.586C39.622 112.2 40.532 112.41 41.316 112.83C42.1 113.25 42.7067 113.829 43.136 114.566C43.5747 115.303 43.794 116.148 43.794 117.1C43.794 118.052 43.5747 118.897 43.136 119.634C42.7067 120.371 42.1 120.95 41.316 121.37C40.532 121.79 39.622 122 38.586 122H34.708ZM35.422 121.356H38.53C39.454 121.356 40.2567 121.174 40.938 120.81C41.6193 120.446 42.1467 119.947 42.52 119.312C42.8933 118.668 43.08 117.931 43.08 117.1C43.08 116.269 42.8933 115.537 42.52 114.902C42.1467 114.258 41.6193 113.754 40.938 113.39C40.2567 113.026 39.454 112.844 38.53 112.844H35.422V121.356ZM50.5304 122V114.692H51.2024V116.694L51.1324 116.47C51.3377 115.882 51.6831 115.429 52.1684 115.112C52.6537 114.795 53.2604 114.636 53.9884 114.636V115.322C53.9604 115.322 53.9324 115.322 53.9044 115.322C53.8764 115.313 53.8484 115.308 53.8204 115.308C53.0084 115.308 52.3737 115.565 51.9164 116.078C51.4591 116.582 51.2304 117.287 51.2304 118.192V122H50.5304ZM60.3971 122V114.692H61.0971V122H60.3971ZM60.7471 112.914C60.5885 112.914 60.4531 112.858 60.3411 112.746C60.2291 112.634 60.1731 112.503 60.1731 112.354C60.1731 112.195 60.2291 112.06 60.3411 111.948C60.4531 111.836 60.5885 111.78 60.7471 111.78C60.9151 111.78 61.0505 111.836 61.1531 111.948C61.2651 112.051 61.3211 112.181 61.3211 112.34C61.3211 112.499 61.2651 112.634 61.1531 112.746C61.0505 112.858 60.9151 112.914 60.7471 112.914ZM70.3755 122L67.0855 114.692H67.8275L70.9075 121.608H70.5715L73.6795 114.692H74.3935L71.0895 122H70.3755ZM80.404 122V114.692H81.104V122H80.404ZM80.754 112.914C80.5953 112.914 80.46 112.858 80.348 112.746C80.236 112.634 80.18 112.503 80.18 112.354C80.18 112.195 80.236 112.06 80.348 111.948C80.46 111.836 80.5953 111.78 80.754 111.78C80.922 111.78 81.0573 111.836 81.16 111.948C81.272 112.051 81.328 112.181 81.328 112.34C81.328 112.499 81.272 112.634 81.16 112.746C81.0573 112.858 80.922 112.914 80.754 112.914ZM92.1044 114.636C92.7017 114.636 93.2197 114.753 93.6584 114.986C94.1064 115.21 94.4517 115.555 94.6944 116.022C94.9464 116.479 95.0724 117.049 95.0724 117.73V122H94.3724V117.786C94.3724 116.965 94.1624 116.339 93.7424 115.91C93.3317 115.481 92.7531 115.266 92.0064 115.266C91.4371 115.266 90.9424 115.383 90.5224 115.616C90.1024 115.849 89.7804 116.176 89.5564 116.596C89.3417 117.016 89.2344 117.52 89.2344 118.108V122H88.5344V114.692H89.2064V116.722L89.1084 116.498C89.3324 115.919 89.7011 115.467 90.2144 115.14C90.7277 114.804 91.3577 114.636 92.1044 114.636ZM105.472 124.772C104.81 124.772 104.18 124.669 103.582 124.464C102.985 124.259 102.5 123.974 102.126 123.61L102.504 123.078C102.868 123.414 103.302 123.675 103.806 123.862C104.32 124.049 104.87 124.142 105.458 124.142C106.438 124.142 107.157 123.913 107.614 123.456C108.081 122.999 108.314 122.28 108.314 121.3V119.27L108.454 118.178L108.342 117.086V114.692H109.014V121.216C109.014 122.439 108.716 123.335 108.118 123.904C107.53 124.483 106.648 124.772 105.472 124.772ZM105.276 121.734C104.586 121.734 103.965 121.585 103.414 121.286C102.873 120.978 102.439 120.558 102.112 120.026C101.795 119.485 101.636 118.869 101.636 118.178C101.636 117.478 101.795 116.862 102.112 116.33C102.439 115.798 102.873 115.383 103.414 115.084C103.965 114.785 104.586 114.636 105.276 114.636C105.939 114.636 106.532 114.781 107.054 115.07C107.586 115.35 108.006 115.756 108.314 116.288C108.622 116.811 108.776 117.441 108.776 118.178C108.776 118.906 108.622 119.536 108.314 120.068C108.006 120.6 107.586 121.011 107.054 121.3C106.532 121.589 105.939 121.734 105.276 121.734ZM105.332 121.104C105.92 121.104 106.438 120.983 106.886 120.74C107.334 120.488 107.684 120.143 107.936 119.704C108.198 119.256 108.328 118.747 108.328 118.178C108.328 117.599 108.198 117.091 107.936 116.652C107.684 116.213 107.334 115.873 106.886 115.63C106.438 115.387 105.92 115.266 105.332 115.266C104.763 115.266 104.25 115.387 103.792 115.63C103.344 115.873 102.99 116.213 102.728 116.652C102.476 117.091 102.35 117.599 102.35 118.178C102.35 118.747 102.476 119.256 102.728 119.704C102.99 120.143 103.344 120.488 103.792 120.74C104.25 120.983 104.763 121.104 105.332 121.104ZM124.757 122V112.2H125.471V122H124.757ZM136.712 114.636C137.309 114.636 137.827 114.753 138.266 114.986C138.714 115.21 139.059 115.555 139.302 116.022C139.554 116.479 139.68 117.049 139.68 117.73V122H138.98V117.786C138.98 116.965 138.77 116.339 138.35 115.91C137.939 115.481 137.361 115.266 136.614 115.266C136.045 115.266 135.55 115.383 135.13 115.616C134.71 115.849 134.388 116.176 134.164 116.596C133.949 117.016 133.842 117.52 133.842 118.108V122H133.142V114.692H133.814V116.722L133.716 116.498C133.94 115.919 134.309 115.467 134.822 115.14C135.335 114.804 135.965 114.636 136.712 114.636ZM150.612 114.636C151.209 114.636 151.727 114.753 152.166 114.986C152.614 115.21 152.959 115.555 153.202 116.022C153.454 116.479 153.58 117.049 153.58 117.73V122H152.88V117.786C152.88 116.965 152.67 116.339 152.25 115.91C151.839 115.481 151.26 115.266 150.514 115.266C149.944 115.266 149.45 115.383 149.03 115.616C148.61 115.849 148.288 116.176 148.064 116.596C147.849 117.016 147.742 117.52 147.742 118.108V122H147.042V114.692H147.714V116.722L147.616 116.498C147.84 115.919 148.208 115.467 148.722 115.14C149.235 114.804 149.865 114.636 150.612 114.636ZM163.798 122.056C163.098 122.056 162.472 121.897 161.922 121.58C161.38 121.263 160.946 120.824 160.62 120.264C160.302 119.704 160.144 119.065 160.144 118.346C160.144 117.618 160.302 116.979 160.62 116.428C160.946 115.868 161.38 115.429 161.922 115.112C162.472 114.795 163.098 114.636 163.798 114.636C164.498 114.636 165.123 114.795 165.674 115.112C166.224 115.429 166.658 115.868 166.976 116.428C167.293 116.979 167.452 117.618 167.452 118.346C167.452 119.065 167.293 119.704 166.976 120.264C166.658 120.824 166.224 121.263 165.674 121.58C165.123 121.897 164.498 122.056 163.798 122.056ZM163.798 121.426C164.358 121.426 164.862 121.3 165.31 121.048C165.758 120.787 166.108 120.423 166.36 119.956C166.612 119.489 166.738 118.953 166.738 118.346C166.738 117.73 166.612 117.193 166.36 116.736C166.108 116.269 165.758 115.91 165.31 115.658C164.862 115.397 164.358 115.266 163.798 115.266C163.238 115.266 162.734 115.397 162.286 115.658C161.847 115.91 161.497 116.269 161.236 116.736C160.984 117.193 160.858 117.73 160.858 118.346C160.858 118.953 160.984 119.489 161.236 119.956C161.497 120.423 161.847 120.787 162.286 121.048C162.734 121.3 163.238 121.426 163.798 121.426ZM175.746 122L172.456 114.692H173.198L176.278 121.608H175.942L179.05 114.692H179.764L176.46 122H175.746ZM190.162 122V120.334L190.134 120.082V117.338C190.134 116.657 189.947 116.139 189.574 115.784C189.21 115.429 188.673 115.252 187.964 115.252C187.46 115.252 186.989 115.341 186.55 115.518C186.121 115.686 185.752 115.905 185.444 116.176L185.094 115.672C185.458 115.345 185.897 115.093 186.41 114.916C186.923 114.729 187.46 114.636 188.02 114.636C188.925 114.636 189.621 114.865 190.106 115.322C190.591 115.779 190.834 116.461 190.834 117.366V122H190.162ZM187.53 122.056C186.989 122.056 186.517 121.972 186.116 121.804C185.724 121.627 185.421 121.379 185.206 121.062C185.001 120.745 184.898 120.381 184.898 119.97C184.898 119.597 184.982 119.261 185.15 118.962C185.327 118.654 185.617 118.407 186.018 118.22C186.419 118.024 186.956 117.926 187.628 117.926H190.316V118.472H187.642C186.886 118.472 186.354 118.612 186.046 118.892C185.747 119.172 185.598 119.522 185.598 119.942C185.598 120.409 185.775 120.782 186.13 121.062C186.485 121.342 186.984 121.482 187.628 121.482C188.244 121.482 188.762 121.342 189.182 121.062C189.611 120.782 189.929 120.376 190.134 119.844L190.33 120.32C190.134 120.852 189.798 121.277 189.322 121.594C188.855 121.902 188.258 122.056 187.53 122.056ZM200.326 122.056C199.682 122.056 199.187 121.879 198.842 121.524C198.506 121.169 198.338 120.684 198.338 120.068V113.096H199.038V119.998C199.038 120.465 199.155 120.824 199.388 121.076C199.621 121.328 199.957 121.454 200.396 121.454C200.853 121.454 201.231 121.319 201.53 121.048L201.824 121.538C201.637 121.715 201.409 121.846 201.138 121.93C200.877 122.014 200.606 122.056 200.326 122.056ZM196.994 115.294V114.692H201.362V115.294H196.994ZM208.256 122V114.692H208.956V122H208.256ZM208.606 112.914C208.448 112.914 208.312 112.858 208.2 112.746C208.088 112.634 208.032 112.503 208.032 112.354C208.032 112.195 208.088 112.06 208.2 111.948C208.312 111.836 208.448 111.78 208.606 111.78C208.774 111.78 208.91 111.836 209.012 111.948C209.124 112.051 209.18 112.181 209.18 112.34C209.18 112.499 209.124 112.634 209.012 112.746C208.91 112.858 208.774 112.914 208.606 112.914ZM219.243 122.056C218.543 122.056 217.917 121.897 217.367 121.58C216.825 121.263 216.391 120.824 216.065 120.264C215.747 119.704 215.589 119.065 215.589 118.346C215.589 117.618 215.747 116.979 216.065 116.428C216.391 115.868 216.825 115.429 217.367 115.112C217.917 114.795 218.543 114.636 219.243 114.636C219.943 114.636 220.568 114.795 221.119 115.112C221.669 115.429 222.103 115.868 222.421 116.428C222.738 116.979 222.897 117.618 222.897 118.346C222.897 119.065 222.738 119.704 222.421 120.264C222.103 120.824 221.669 121.263 221.119 121.58C220.568 121.897 219.943 122.056 219.243 122.056ZM219.243 121.426C219.803 121.426 220.307 121.3 220.755 121.048C221.203 120.787 221.553 120.423 221.805 119.956C222.057 119.489 222.183 118.953 222.183 118.346C222.183 117.73 222.057 117.193 221.805 116.736C221.553 116.269 221.203 115.91 220.755 115.658C220.307 115.397 219.803 115.266 219.243 115.266C218.683 115.266 218.179 115.397 217.731 115.658C217.292 115.91 216.942 116.269 216.681 116.736C216.429 117.193 216.303 117.73 216.303 118.346C216.303 118.953 216.429 119.489 216.681 119.956C216.942 120.423 217.292 120.787 217.731 121.048C218.179 121.3 218.683 121.426 219.243 121.426ZM233.118 114.636C233.716 114.636 234.234 114.753 234.672 114.986C235.12 115.21 235.466 115.555 235.708 116.022C235.96 116.479 236.086 117.049 236.086 117.73V122H235.386V117.786C235.386 116.965 235.176 116.339 234.756 115.91C234.346 115.481 233.767 115.266 233.02 115.266C232.451 115.266 231.956 115.383 231.536 115.616C231.116 115.849 230.794 116.176 230.57 116.596C230.356 117.016 230.248 117.52 230.248 118.108V122H229.548V114.692H230.22V116.722L230.122 116.498C230.346 115.919 230.715 115.467 231.228 115.14C231.742 114.804 232.372 114.636 233.118 114.636ZM250.11 122L254.618 112.2H255.332L259.84 122H259.07L254.814 112.648H255.122L250.88 122H250.11ZM251.762 119.242L252 118.64H257.866L258.104 119.242H251.762ZM268.705 122.056C267.995 122.056 267.361 121.897 266.801 121.58C266.25 121.263 265.811 120.824 265.485 120.264C265.167 119.704 265.009 119.065 265.009 118.346C265.009 117.618 265.167 116.974 265.485 116.414C265.811 115.854 266.25 115.42 266.801 115.112C267.361 114.795 267.995 114.636 268.705 114.636C269.293 114.636 269.825 114.748 270.301 114.972C270.786 115.196 271.178 115.532 271.477 115.98L270.959 116.358C270.697 115.985 270.371 115.709 269.979 115.532C269.587 115.355 269.162 115.266 268.705 115.266C268.135 115.266 267.622 115.397 267.165 115.658C266.717 115.91 266.362 116.269 266.101 116.736C265.849 117.193 265.723 117.73 265.723 118.346C265.723 118.962 265.849 119.503 266.101 119.97C266.362 120.427 266.717 120.787 267.165 121.048C267.622 121.3 268.135 121.426 268.705 121.426C269.162 121.426 269.587 121.337 269.979 121.16C270.371 120.983 270.697 120.707 270.959 120.334L271.477 120.712C271.178 121.16 270.786 121.496 270.301 121.72C269.825 121.944 269.293 122.056 268.705 122.056ZM278.052 122V114.692H278.724V116.694L278.654 116.47C278.86 115.882 279.205 115.429 279.69 115.112C280.176 114.795 280.782 114.636 281.51 114.636V115.322C281.482 115.322 281.454 115.322 281.426 115.322C281.398 115.313 281.37 115.308 281.342 115.308C280.53 115.308 279.896 115.565 279.438 116.078C278.981 116.582 278.752 117.287 278.752 118.192V122H278.052ZM290.707 122.056C290.007 122.056 289.381 121.897 288.831 121.58C288.289 121.263 287.855 120.824 287.529 120.264C287.211 119.704 287.053 119.065 287.053 118.346C287.053 117.618 287.211 116.979 287.529 116.428C287.855 115.868 288.289 115.429 288.831 115.112C289.381 114.795 290.007 114.636 290.707 114.636C291.407 114.636 292.032 114.795 292.583 115.112C293.133 115.429 293.567 115.868 293.885 116.428C294.202 116.979 294.361 117.618 294.361 118.346C294.361 119.065 294.202 119.704 293.885 120.264C293.567 120.824 293.133 121.263 292.583 121.58C292.032 121.897 291.407 122.056 290.707 122.056ZM290.707 121.426C291.267 121.426 291.771 121.3 292.219 121.048C292.667 120.787 293.017 120.423 293.269 119.956C293.521 119.489 293.647 118.953 293.647 118.346C293.647 117.73 293.521 117.193 293.269 116.736C293.017 116.269 292.667 115.91 292.219 115.658C291.771 115.397 291.267 115.266 290.707 115.266C290.147 115.266 289.643 115.397 289.195 115.658C288.756 115.91 288.406 116.269 288.145 116.736C287.893 117.193 287.767 117.73 287.767 118.346C287.767 118.953 287.893 119.489 288.145 119.956C288.406 120.423 288.756 120.787 289.195 121.048C289.643 121.3 290.147 121.426 290.707 121.426ZM302.86 122.056C302.254 122.056 301.684 121.967 301.152 121.79C300.63 121.613 300.224 121.389 299.934 121.118L300.256 120.558C300.536 120.801 300.91 121.011 301.376 121.188C301.843 121.356 302.347 121.44 302.888 121.44C303.654 121.44 304.204 121.314 304.54 121.062C304.876 120.81 305.044 120.479 305.044 120.068C305.044 119.769 304.956 119.536 304.778 119.368C304.61 119.191 304.382 119.055 304.092 118.962C303.803 118.869 303.486 118.794 303.14 118.738C302.795 118.673 302.45 118.603 302.104 118.528C301.759 118.453 301.442 118.346 301.152 118.206C300.863 118.066 300.63 117.875 300.452 117.632C300.284 117.38 300.2 117.049 300.2 116.638C300.2 116.265 300.303 115.929 300.508 115.63C300.714 115.331 301.022 115.093 301.432 114.916C301.843 114.729 302.356 114.636 302.972 114.636C303.43 114.636 303.887 114.701 304.344 114.832C304.811 114.963 305.189 115.135 305.478 115.35L305.156 115.91C304.848 115.677 304.503 115.509 304.12 115.406C303.738 115.303 303.35 115.252 302.958 115.252C302.249 115.252 301.726 115.383 301.39 115.644C301.064 115.905 300.9 116.232 300.9 116.624C300.9 116.932 300.984 117.179 301.152 117.366C301.33 117.543 301.563 117.683 301.852 117.786C302.142 117.879 302.459 117.959 302.804 118.024C303.15 118.08 303.495 118.145 303.84 118.22C304.186 118.295 304.503 118.402 304.792 118.542C305.082 118.673 305.31 118.859 305.478 119.102C305.656 119.335 305.744 119.653 305.744 120.054C305.744 120.455 305.632 120.805 305.408 121.104C305.194 121.403 304.872 121.636 304.442 121.804C304.013 121.972 303.486 122.056 302.86 122.056ZM314.026 122.056C313.419 122.056 312.85 121.967 312.318 121.79C311.795 121.613 311.389 121.389 311.1 121.118L311.422 120.558C311.702 120.801 312.075 121.011 312.542 121.188C313.008 121.356 313.512 121.44 314.054 121.44C314.819 121.44 315.37 121.314 315.706 121.062C316.042 120.81 316.21 120.479 316.21 120.068C316.21 119.769 316.121 119.536 315.944 119.368C315.776 119.191 315.547 119.055 315.258 118.962C314.968 118.869 314.651 118.794 314.306 118.738C313.96 118.673 313.615 118.603 313.27 118.528C312.924 118.453 312.607 118.346 312.318 118.206C312.028 118.066 311.795 117.875 311.618 117.632C311.45 117.38 311.366 117.049 311.366 116.638C311.366 116.265 311.468 115.929 311.674 115.63C311.879 115.331 312.187 115.093 312.598 114.916C313.008 114.729 313.522 114.636 314.138 114.636C314.595 114.636 315.052 114.701 315.51 114.832C315.976 114.963 316.354 115.135 316.644 115.35L316.322 115.91C316.014 115.677 315.668 115.509 315.286 115.406C314.903 115.303 314.516 115.252 314.124 115.252C313.414 115.252 312.892 115.383 312.556 115.644C312.229 115.905 312.066 116.232 312.066 116.624C312.066 116.932 312.15 117.179 312.318 117.366C312.495 117.543 312.728 117.683 313.018 117.786C313.307 117.879 313.624 117.959 313.97 118.024C314.315 118.08 314.66 118.145 315.006 118.22C315.351 118.295 315.668 118.402 315.958 118.542C316.247 118.673 316.476 118.859 316.644 119.102C316.821 119.335 316.91 119.653 316.91 120.054C316.91 120.455 316.798 120.805 316.574 121.104C316.359 121.403 316.037 121.636 315.608 121.804C315.178 121.972 314.651 122.056 314.026 122.056ZM331.643 122V112.2H332.245L336.795 120.054H336.473L341.009 112.2H341.597L341.611 122H340.911L340.897 113.278H341.093L336.795 120.698H336.445L332.133 113.278H332.343V122H331.643ZM353.652 122.07C352.924 122.07 352.247 121.949 351.622 121.706C351.006 121.454 350.469 121.104 350.012 120.656C349.555 120.208 349.2 119.685 348.948 119.088C348.696 118.481 348.57 117.819 348.57 117.1C348.57 116.381 348.696 115.723 348.948 115.126C349.2 114.519 349.555 113.992 350.012 113.544C350.479 113.096 351.02 112.751 351.636 112.508C352.252 112.256 352.924 112.13 353.652 112.13C354.343 112.13 354.987 112.242 355.584 112.466C356.191 112.69 356.709 113.031 357.138 113.488L356.69 113.95C356.27 113.539 355.803 113.245 355.29 113.068C354.786 112.881 354.249 112.788 353.68 112.788C353.055 112.788 352.471 112.895 351.93 113.11C351.398 113.325 350.931 113.628 350.53 114.02C350.138 114.412 349.83 114.869 349.606 115.392C349.391 115.915 349.284 116.484 349.284 117.1C349.284 117.716 349.391 118.285 349.606 118.808C349.83 119.331 350.138 119.788 350.53 120.18C350.931 120.572 351.398 120.875 351.93 121.09C352.471 121.305 353.055 121.412 353.68 121.412C354.249 121.412 354.786 121.323 355.29 121.146C355.803 120.959 356.27 120.656 356.69 120.236L357.138 120.698C356.709 121.155 356.191 121.501 355.584 121.734C354.987 121.958 354.343 122.07 353.652 122.07ZM364.639 116.708H369.945V117.338H364.639V116.708ZM364.723 121.356H370.771V122H364.009V112.2H370.561V112.844H364.723V121.356ZM379.731 122V112.844H376.203V112.2H383.973V112.844H380.445V122H379.731Z" fill="#C69113"/>
<line x1="33" y1="127.5" x2="387" y2="127.5" stroke="#FFDC88"/>
<line x1="33" y1="106.5" x2="387" y2="106.5" stroke="#FFDC88"/>
<path fill-rule="evenodd" clip-rule="evenodd" d="M289.363 2.78866C283.671 6.40666 275.949 14.8837 269.386 24.7177C266.544 28.9777 264.066 32.6227 263.879 32.8176C263.693 33.0126 262.093 31.5237 260.323 29.5087C255.66 24.1977 250.655 21.9627 243.424 21.9627C236.192 21.9627 231.119 24.2547 218.465 33.2347C205.942 42.1227 202.036 43.9627 195.691 43.9627C191.025 43.9627 189.853 43.5527 187.34 41.0396C179.819 33.5177 188.376 19.7747 197.044 25.4547C200.375 27.6367 201.608 26.3507 198.556 23.8767C194.755 20.7947 189.807 21.3726 185.817 25.3626C182.749 28.4306 182.417 29.3167 182.417 34.4397C182.417 39.3417 182.804 40.5037 185.254 42.9537C189.115 46.8137 195.863 47.8177 202.945 45.5857C205.822 44.6787 213.068 40.9467 219.047 37.2927C238.392 25.4697 241.913 24.0827 249.135 25.4377C253.054 26.1727 261.44 33.4557 261.391 36.0807C261.377 36.8406 259.648 38.2537 257.548 39.2197C255.449 40.1867 253.211 42.1197 252.574 43.5167C251.128 46.6907 251.076 50.6827 252.474 51.1487C254.404 51.7917 252.245 54.9627 249.877 54.9627C247.188 54.9627 246.287 56.9987 246.497 62.6017C246.589 65.0307 245.225 69.9857 242.821 75.9627C239.444 84.3577 238.995 86.4677 238.959 94.1047C238.908 104.592 240.344 106.963 246.743 106.963C250.196 106.963 251.363 106.334 255.056 102.48C260.478 96.8207 262.883 89.3566 262.165 80.4176L261.669 74.2286L268.293 73.6027C271.936 73.2587 279.487 72.9737 285.073 72.9697L295.229 72.9627L298.823 67.9607C300.8 65.2087 302.417 62.7337 302.417 62.4607C302.417 61.5277 283.821 61.9586 282.867 62.9146C282.267 63.5157 282.046 62.0287 282.266 58.8767C282.733 52.2007 281.976 49.6687 278.242 45.4157L275.096 41.8326L282.129 34.6477C298.893 17.5207 305.676 5.62165 301.217 1.16265C299.177 -0.877349 294.016 -0.169342 289.363 2.78866ZM292.741 5.48866C288.768 8.61966 282.076 17.4767 274.823 29.2027C270.497 36.1957 269.539 38.4246 270.577 39.0826C271.314 39.5496 272.19 39.9387 272.525 39.9477C273.269 39.9657 285.293 26.6407 291.883 18.4927C296.801 12.4117 300.676 5.19066 299.79 3.75666C298.865 2.26066 295.916 2.98566 292.741 5.48866ZM329.417 32.8496C327.789 33.2966 324.649 36.7287 320.417 42.6877C314.049 51.6537 313.827 51.8447 309.495 52.1507C304.064 52.5337 302.833 54.7037 307.794 55.1487L311.294 55.4627L302.751 67.4627C292.556 81.7837 289.44 87.9407 289.427 93.7896C289.419 97.2457 290.005 98.7047 292.34 101.04C294.876 103.576 296.006 103.963 300.872 103.963C307.954 103.963 312.064 102.243 318.021 96.7886C323.403 91.8596 331.417 81.4297 331.417 79.3527C331.417 76.5207 328.817 78.1617 325.457 83.1126C318.144 93.8896 309.012 100.995 302.225 101.188C299.032 101.278 297.451 99.7167 297.442 96.4627C297.432 92.6637 302.361 83.9127 312.621 69.5197L322.917 55.0736L328.838 54.7687C336.393 54.3787 337.639 52.1996 330.553 51.7676L325.558 51.4627L332.442 42.4937C339.516 33.2757 339.777 31.8967 334.417 32.0777C333.042 32.1237 330.792 32.4716 329.417 32.8496ZM255.872 43.4177C254.522 44.7677 253.417 46.5677 253.417 47.4177C253.417 50.2137 255.341 49.0327 257.417 44.9627C259.765 40.3597 259.347 39.9417 255.872 43.4177ZM265.54 45.2206L263.162 49.4627L266.751 46.0546C268.724 44.1796 270.105 42.2667 269.819 41.8046C268.847 40.2317 267.921 40.9706 265.54 45.2206ZM265.75 51.1926C261.875 55.1907 258.405 59.4127 258.037 60.5747C257.64 61.8317 258.171 64.5547 259.347 67.2997L261.325 71.9137L265.961 71.5657C277.062 70.7346 282.586 59.5996 277.167 48.9746C275.929 46.5476 274.439 44.4187 273.856 44.2427C273.272 44.0657 269.624 47.1936 265.75 51.1926ZM38.667 52.1447C34.493 55.3767 33.417 56.7996 33.417 59.0866V61.9627H23.309H13.201L6.601 67.2127L0 72.4627L16.709 72.7367L33.417 73.0107V88.4866V103.963H39.417H45.417V88.4627V72.9627H142.968H240.519L241.968 69.4947C242.765 67.5877 243.417 65.1127 243.417 63.9947C243.417 61.9657 243.272 61.9627 144.417 61.9627H45.417V54.9627C45.417 51.1127 45.079 47.9887 44.667 48.0207C44.255 48.0527 41.555 49.9087 38.667 52.1447ZM261.131 63.9787C261.421 65.0867 262.039 66.2286 262.503 66.5156C263.348 67.0377 271.417 63.3497 271.417 62.4426C271.417 62.1786 268.984 61.9627 266.011 61.9627C261.083 61.9627 260.651 62.1407 261.131 63.9787ZM318.011 66.9647C316.034 69.7167 314.417 72.1917 314.417 72.4647C314.417 72.7387 328.947 72.9627 346.705 72.9627H378.993L382.516 68.7127C384.454 66.3747 386.375 63.9007 386.787 63.2127C387.379 62.2227 380.674 61.9627 354.57 61.9627H321.605L318.011 66.9647ZM254.594 67.6297C254.772 68.5467 255.444 69.4727 256.088 69.6867C256.833 69.9347 257.064 69.3287 256.722 68.0197C256.083 65.5757 254.126 65.2167 254.594 67.6297ZM250.481 76.3257C247.484 83.7367 244.417 94.9637 244.417 98.5187C244.417 100.203 245.057 102.454 245.839 103.522C247.243 105.438 247.296 105.437 250.027 103.401C254.328 100.196 256.237 96.9977 257.991 90.0617C259.064 85.8207 259.393 81.9247 258.967 78.5136C258.405 74.0186 257.958 73.2277 255.44 72.2777C252.611 71.2097 252.519 71.2847 250.481 76.3257ZM353.392 77.5277C351.78 81.7697 352.164 84.9627 354.286 84.9627C356.014 84.9627 357.362 81.1827 357.406 76.2127C357.426 73.9257 354.383 74.9227 353.392 77.5277ZM276.417 79.0686C265.605 85.5506 260.217 96.7627 265.417 101.963C266.843 103.389 268.75 103.963 272.06 103.963C276.28 103.963 277.145 103.521 281.56 99.1057C284.231 96.4337 286.417 93.4677 286.417 92.5147C286.417 91.3557 284.663 92.6347 281.13 96.3717C276.558 101.207 275.341 101.963 272.13 101.963C268.684 101.963 268.417 101.75 268.417 99.0097C268.417 97.3857 268.939 94.9107 269.578 93.5097C270.559 91.3547 271.4 90.9627 275.043 90.9627C278.403 90.9627 280.1 90.3027 282.777 87.9517C291.218 80.5397 286.036 73.3016 276.417 79.0686ZM340.917 78.6237C332.606 83.1417 327.417 89.9957 327.417 96.4576C327.417 101.739 329.668 103.963 335.014 103.963C339.882 103.963 344.934 100.71 348.856 95.0507C353.24 88.7247 351.276 89.1536 344.647 95.9696C339.348 101.418 338.297 102.073 335.297 101.786C332.095 101.48 331.923 101.267 332.029 97.7307C332.176 92.8607 333.876 90.9627 338.089 90.9627C344.855 90.9627 351.021 85.2137 350.228 79.6447C349.828 76.8407 345.143 76.3267 340.917 78.6237ZM359.934 78.5887C357.857 80.6657 358.333 85.3347 360.667 85.7777C361.966 86.0237 362.417 85.4467 362.417 83.5357C362.417 81.9156 362.972 80.9627 363.917 80.9627C366.32 80.9627 365.678 84.4937 361.917 91.9627C359.992 95.7857 358.417 99.3737 358.417 99.9377C358.417 100.524 360.986 100.963 364.417 100.963C369.084 100.963 370.417 100.63 370.417 99.4627C370.417 98.4627 369.417 97.9627 367.417 97.9627C365.767 97.9627 364.417 97.7247 364.417 97.4337C364.417 97.1437 365.767 94.2317 367.417 90.9627C370.773 84.3147 371.17 80.8587 368.846 78.5337C366.803 76.4917 362.002 76.5207 359.934 78.5887ZM372.417 83.5417V90.1217L375.33 89.4817C377.73 88.9547 378.363 89.2187 378.921 90.9746C379.822 93.8146 378.654 98.2067 377.13 97.7057C376.463 97.4857 375.77 96.3027 375.59 95.0757C375.167 92.1947 372.035 92.6547 371.606 95.6617C371.231 98.2807 374.627 101.963 377.417 101.963C381.155 101.963 383.417 98.4557 383.417 92.6627C383.417 86.8767 382.249 84.9627 378.717 84.9627C377.084 84.9627 376.417 84.3827 376.417 82.9627C376.417 81.3437 377.084 80.9627 379.917 80.9627C382.75 80.9627 383.417 80.5817 383.417 78.9627C383.417 77.2047 382.75 76.9627 377.917 76.9627H372.417V83.5417ZM276.609 84.4396C272.178 88.6676 272.057 88.9176 274.444 88.9396C278.288 88.9746 284.307 84.2957 284.385 81.2127C284.449 78.7127 281.196 80.0626 276.609 84.4396ZM342.417 82.2127C340.605 83.4507 338.458 85.4747 337.647 86.7127C336.267 88.8187 336.318 88.9627 338.451 88.9627C341.525 88.9627 347.417 84.3297 347.417 81.9117C347.417 79.3977 346.456 79.4557 342.417 82.2127Z" fill="#E4A91E"/>
<path d="M60.84 96.12H83.6L78.28 103H52.52V76.24H83.52L78.16 83.2H60.84V86.4H82.04L77.28 92.48H60.84V96.12ZM101.706 96.12H120.466L115.146 103H101.706C92.4263 103 85.5863 97.12 85.5863 89.36C85.5863 81.52 92.4263 76.24 101.706 76.24H120.466L115.146 83.2H101.706C97.2263 83.2 93.8663 85.88 93.8663 89.72C93.8663 93.52 97.1863 96.12 101.706 96.12ZM155.82 76.24V103H147.58V92.68H131.66V103H123.34V76.24H131.66V85.72H147.58V76.24H155.82ZM188.038 103.44C186.998 103.44 185.998 103.2 184.718 102L168.318 87.28V103H160.798V80.8C160.798 77.24 162.958 75.8 165.318 75.8C166.318 75.8 167.318 76.04 168.638 77.24L185.038 91.96V76.24H192.598V98.4C192.598 101.96 190.438 103.44 188.038 103.44ZM216.201 75.8C229.201 75.8 235.761 80.04 235.761 89.6C235.761 99.16 229.201 103.44 216.201 103.44C203.161 103.44 196.641 99.16 196.641 89.6C196.641 80.04 203.161 75.8 216.201 75.8ZM216.201 96.48C224.521 96.48 227.521 95.36 227.521 89.6C227.521 83.84 224.521 82.76 216.201 82.76C207.881 82.76 204.881 83.84 204.881 89.6C204.881 95.36 207.881 96.48 216.201 96.48Z" fill="#FFBF37"/>
</svg>
